<?xml version="1.0" encoding="utf-8"?>
<!-- Generator: Adobe Illustrator 16.0.0, SVG Export Plug-In . SVG Version: 6.00 Build 0)  -->
<!DOCTYPE svg PUBLIC "-//W3C//DTD SVG 1.1//EN" "http://www.w3.org/Graphics/SVG/1.1/DTD/svg11.dtd">
<svg version="1.1" id="Calque_1" xmlns="http://www.w3.org/2000/svg" xmlns:xlink="http://www.w3.org/1999/xlink" x="0px" y="0px"
	 width="51.4px" height="20px" viewBox="0 0 38.548 15" enable-background="new 0 0 38.548 15" xml:space="preserve">
<polygon fill="#737679" points="14.25,0.378 9.5,5.128 14.25,5.128 "/>
<polygon fill="#B1B3B4" points="14.25,5.128 19,5.128 14.25,0.378 "/>
<polygon fill="#49494B" points="9.5,5.128 14.25,0.378 9.5,0.378 "/>
<polygon fill="#CACBCC" points="19,5.128 9.509,14.622 14.25,5.128 "/>
<polygon fill="#98999B" points="14.25,5.128 9.5,14.622 9.5,5.128 "/>
<polygon fill="#AFB1B2" points="4.75,0.378 9.5,5.128 4.75,5.128 "/>
<polygon fill="#69696B" points="4.75,5.128 0,5.128 4.75,0.378 "/>
<polygon fill="#737679" points="9.5,5.128 4.75,0.378 9.5,0.378 "/>
<polygon fill="#49494B" points="0,5.128 9.491,14.622 4.75,5.128 "/>
<polygon fill="#737679" points="4.75,5.128 9.5,14.622 9.5,5.128 "/>
<polygon fill="#DD0031" points="33.785,0.36 29.023,5.123 33.785,5.123 "/>
<polygon fill="#E74360" points="33.785,5.123 38.548,5.123 33.785,0.36 "/>
<polygon fill="#C3002F" points="29.023,5.123 33.785,0.36 29.023,0.36 "/>
<polygon fill="#F64B7F" points="38.548,5.123 29.033,14.639 33.785,5.123 "/>
<polygon fill="#F5426C" points="33.785,5.123 29.023,14.639 29.023,5.123 "/>
<polygon fill="#F5426C" points="24.262,0.36 29.023,5.123 24.262,5.123 "/>
<polygon fill="#CC003D" points="24.262,5.123 19.5,5.123 24.262,0.36 "/>
<polygon fill="#DD0031" points="29.023,5.123 24.262,0.36 29.023,0.36 "/>
<polygon fill="#C3002F" points="19.5,5.123 29.015,14.639 24.262,5.123 "/>
<polygon fill="#DD0031" points="24.262,5.123 29.023,14.639 29.023,5.123 "/>
</svg>
