<svg id="Calque_1" data-name="Calque 1" xmlns="http://www.w3.org/2000/svg" viewBox="0 0 985 310"><defs><style>.cls-1{fill:#c33;}.cls-2{fill:#39c;}.cls-3{fill:#f96;}.cls-4{fill:#c69;}.cls-5{fill:#fc6;}.cls-6{fill:#c96;}.cls-7{fill:#999;}.cls-8{fill:#fff;}.cls-9{fill:#9c6;}.cls-10{font-size:58.89px;font-family:Simplicity;}.cls-11{fill:none;stroke:gray;stroke-linecap:square;stroke-miterlimit:10;stroke-width:2.54px;}</style></defs><title>Final_fabrique_v1</title><path d="M47.28,143.55H34.91V83H47.28v60.56ZM82.51,160H34.91V148.92h47.6V160Z"/><path d="M123.42,99.52l6.31,14.8-9.64,22.61h19.4l4.59,10.44H115.61L110.22,160h-13Zm2.87-6.77L130.65,83h4.13l33.4,77H155.09Z"/><path class="cls-1" d="M217.07,84h83v18.61H237.83V213.24H217.07V84Zm29.77,57.19h42.3v19h-42.3v-19Z"/><path class="cls-2" d="M512.2,134c0,15.11-11.44,26.14-29.13,26.14H444.54V70.25H476c16.06,0,27,10.08,27,24.23s-10.75,25-27,25H465V107.14H475c8.85,0,13.48-5.17,13.48-12.25s-4.63-12-13.48-12H458.7v64.53h23.41c9.94,0,15.52-5.72,15.52-14a13.89,13.89,0,0,0-4.77-10.75l9.67-8.31C508.93,119,512.2,125.93,512.2,134Z"/><path class="cls-3" d="M527.53,83h46.14c25.65,0,42.88,15.7,42.88,38.67,0,22.78-17.33,38-43,38H556.62V142.55h16.85c14.36,0,22.21-8.81,22.21-20.68,0-12.06-7.85-20.87-22.21-20.87H547.82V209.36H527.53V83Zm50,86.34,20.48-4,32.16,44H607Z"/><path class="cls-4" d="M863.08,180.37v16a109.78,109.78,0,0,1-21.56,2.1c-33.2,0-59.54-12.6-82.44-42a63,63,0,0,1-21.95,3.63c-36.64,0-65.84-28.05-65.84-65.45,0-19.27,8.4-35.68,21-45.8v46c0,27.1,18.89,46.75,45,46.75a46.72,46.72,0,0,0,26.33-8c27.48,32.82,46.18,47.52,81.29,47.52C850.3,181.13,856.6,180.75,863.08,180.37ZM701.07,64V41.45C710.62,34.2,723.4,30,737.33,30c36.64,0,66.22,28.05,66.22,65.26,0,18.89-7.63,35.11-19.65,46.37L770.15,127.7c8-8.2,12.78-19.84,12.78-32.82,0-26.72-19.84-46.37-45.61-46.37A50.8,50.8,0,0,0,701.07,64Z"/><path class="cls-5" d="M820.28,128.31v-45h12.15v45.84c0,12.61,7.56,19.94,19.14,19.94A27.05,27.05,0,0,0,865,145.39v11.8a29.49,29.49,0,0,1-13.52,3C833,160.17,820.28,147.79,820.28,128.31Zm50-45h12.15v45c0,12.26-4.81,20.63-12.15,25.56V83.28Z"/><path class="cls-6" d="M899.5,48.63h56.93V61.09h-43v61.65H958V135.2H899.5V48.63Zm19.94,34.76H945.8v11.8H919.44V83.39Z"/><path class="cls-7" d="M354.15,59.58l10.49,24.61-16,37.57h32.23l7.63,17.36H341.18l-9,21H310.66Zm4.77-11.25,7.25-16.21H373l55.51,128H406.8Z"/><polygon class="cls-7" points="453.06 48.95 289.54 48.95 281.96 30.76 445.89 30.76 453.06 48.95"/><circle class="cls-8" cx="369.24" cy="40.11" r="4.76"/><circle class="cls-8" cx="334.75" cy="130.08" r="4.76"/><circle class="cls-8" cx="405.05" cy="130.08" r="4.76"/><path class="cls-9" d="M636.08,66.87l14.15-11.12v79.1H636.08v-68Z"/><polygon class="cls-9" points="650.23 43.24 636.08 54.59 636.08 30 650.23 30 650.23 43.24"/><text class="cls-10" transform="translate(700.46 276.58)">du monde</text><line class="cls-11" x1="666.12" y1="220.58" x2="666.12" y2="256.15"/><line class="cls-11" x1="701.68" y1="220.58" x2="666.12" y2="220.58"/><line class="cls-11" x1="958" y1="294.37" x2="958" y2="258.8"/><line class="cls-11" x1="922.44" y1="294.37" x2="958" y2="294.37"/></svg>