<svg id="Calque_1" data-name="Calque 1" xmlns="http://www.w3.org/2000/svg" viewBox="0 0 985 344"><defs><style>.cls-1{fill:#c33;}.cls-2{fill:#39c;}.cls-3{fill:#f96;}.cls-4{fill:#c69;}.cls-5{fill:#fc6;}.cls-6{fill:#c96;}.cls-7{fill:#999;}.cls-8{fill:#fff;}.cls-9{fill:#9c6;}.cls-10{fill:none;stroke:gray;stroke-linecap:square;stroke-miterlimit:10;stroke-width:2.95px;}</style></defs><title>Final_fabrique_v1</title><path d="M47.28,143.55H34.91V83H47.28v60.56ZM82.51,160H34.91V148.92h47.6V160Z"/><path d="M123.42,99.52l6.31,14.8-9.64,22.61h19.4l4.59,10.44H115.61L110.22,160h-13Zm2.87-6.77L130.65,83h4.13l33.4,77H155.09Z"/><path class="cls-1" d="M217.07,84h83v18.61H237.83V213.24H217.07V84Zm29.77,57.19h42.3v19h-42.3v-19Z"/><path class="cls-2" d="M512.2,134c0,15.11-11.44,26.14-29.13,26.14H444.54V70.25H476c16.06,0,27,10.08,27,24.23s-10.75,25-27,25H465V107.14H475c8.85,0,13.48-5.17,13.48-12.25s-4.63-12-13.48-12H458.7v64.53h23.41c9.94,0,15.52-5.72,15.52-14a13.89,13.89,0,0,0-4.77-10.75l9.67-8.31C508.93,119,512.2,125.93,512.2,134Z"/><path class="cls-3" d="M527.53,83h46.14c25.65,0,42.88,15.7,42.88,38.67,0,22.78-17.33,38-43,38H556.62V142.55h16.85c14.36,0,22.21-8.81,22.21-20.68,0-12.06-7.85-20.87-22.21-20.87H547.82V209.36H527.53V83Zm50,86.34,20.48-4,32.16,44H607Z"/><path class="cls-4" d="M863.08,180.37v16a109.78,109.78,0,0,1-21.56,2.1c-33.2,0-59.54-12.6-82.44-42a63,63,0,0,1-21.95,3.63c-36.64,0-65.84-28.05-65.84-65.45,0-19.27,8.4-35.68,21-45.8v46c0,27.1,18.89,46.75,45,46.75a46.72,46.72,0,0,0,26.33-8c27.48,32.82,46.18,47.52,81.29,47.52C850.3,181.13,856.6,180.75,863.08,180.37ZM701.07,64V41.45C710.62,34.2,723.4,30,737.33,30c36.64,0,66.22,28.05,66.22,65.26,0,18.89-7.63,35.11-19.65,46.37L770.15,127.7c8-8.2,12.78-19.84,12.78-32.82,0-26.72-19.84-46.37-45.61-46.37A50.8,50.8,0,0,0,701.07,64Z"/><path class="cls-5" d="M820.28,128.31v-45h12.15v45.84c0,12.61,7.56,19.94,19.14,19.94A27.05,27.05,0,0,0,865,145.39v11.8a29.49,29.49,0,0,1-13.52,3C833,160.17,820.28,147.79,820.28,128.31Zm50-45h12.15v45c0,12.26-4.81,20.63-12.15,25.56V83.28Z"/><path class="cls-6" d="M899.5,48.63h56.93V61.09h-43v61.65H958V135.2H899.5V48.63Zm19.94,34.76H945.8v11.8H919.44V83.39Z"/><path class="cls-7" d="M354.15,59.58l10.49,24.61-16,37.57h32.23l7.63,17.36H341.18l-9,21H310.66Zm4.77-11.25,7.25-16.21H373l55.51,128H406.8Z"/><polygon class="cls-7" points="453.06 48.95 289.54 48.95 281.96 30.76 445.89 30.76 453.06 48.95"/><circle class="cls-8" cx="369.24" cy="40.11" r="4.76"/><circle class="cls-8" cx="334.75" cy="130.08" r="4.76"/><circle class="cls-8" cx="405.05" cy="130.08" r="4.76"/><path class="cls-9" d="M636.08,66.87l14.15-11.12v79.1H636.08v-68Z"/><polygon class="cls-9" points="650.23 43.24 636.08 54.59 636.08 30 650.23 30 650.23 43.24"/><path d="M668.84,271.13q0.08-13.86.08-22.27a1.6,1.6,0,0,1,3.2,0q0,8.81-.08,26.39T672,301.66a1.6,1.6,0,0,1-3.2,0v-4.08a15.47,15.47,0,0,1-7.81,4.81,17,17,0,0,1-8.89,0A16.94,16.94,0,0,1,640,288.92a24.08,24.08,0,0,1,1.88-14.42,20.7,20.7,0,0,1,8.69-9.93q6.09-3.28,11.78-.24A17.43,17.43,0,0,1,668.84,271.13Zm-0.16,7.61q-2.89-8.89-7.85-11.62a8.57,8.57,0,0,0-8.73.32,17.24,17.24,0,0,0-7.37,8.41,20.63,20.63,0,0,0-1.52,12.58,13.31,13.31,0,0,0,3,6.61,12.27,12.27,0,0,0,5.49,3.81,16.33,16.33,0,0,0,6.41.8,11.93,11.93,0,0,0,6.21-2.36,13.29,13.29,0,0,0,4.45-5.73q0-5,.08-12.5Z"/><path d="M681.34,265a134.2,134.2,0,0,0-1.12,15.7q0,10.58,2.24,14.5,2.4,4.41,5.53,5,2.64,0.48,5.85-1.76a22.06,22.06,0,0,0,5.45-5.73,26.18,26.18,0,0,0,3.52-7.09Q703,270.9,703,265a1.6,1.6,0,0,1,3.2,0q0,6-.16,19.63a1.4,1.4,0,0,1,.08,1L706,286q-0.08,9.77-.08,15.62a1.6,1.6,0,0,1-3.2,0v-8.57a27.34,27.34,0,0,1-7,7.85q-4.33,3.12-8.33,2.4-4.65-.88-7.85-6.57Q677,292,677,280.67a142,142,0,0,1,1.12-16.18,1.5,1.5,0,0,1,.6-1,1.6,1.6,0,0,1,1.2-.32,1.54,1.54,0,0,1,1.08.6A1.66,1.66,0,0,1,681.34,265Z"/><path d="M736,300.85q0-5.53.12-16.62t0.12-16.62a1.6,1.6,0,0,1,3.2,0v1.44a17.59,17.59,0,0,1,5.49-4.44,14.53,14.53,0,0,1,6.37-1.72,11.16,11.16,0,0,1,6.37,1.72,11.53,11.53,0,0,1,4.37,5.25,18.35,18.35,0,0,1,5-4.48,18,18,0,0,1,6.25-2.4,11,11,0,0,1,7.61,1,10.65,10.65,0,0,1,5,7,56.74,56.74,0,0,1,1.6,10.57q0.32,6.17.2,9.49t-0.44,10.53a1.36,1.36,0,0,1-.52,1.08,1.76,1.76,0,0,1-1.16.44,1.36,1.36,0,0,1-1.08-.52,1.75,1.75,0,0,1-.44-1.16q0.32-7.13.44-10.49t-0.24-9.13a57.66,57.66,0,0,0-1.4-10,7.51,7.51,0,0,0-3.44-5,8.24,8.24,0,0,0-5.53-.72,16.25,16.25,0,0,0-6,2.68,12.38,12.38,0,0,0-4.21,4.69,1,1,0,0,1-.16.24q0,2.72-.12,8.53t-0.12,8.85a1.6,1.6,0,0,1-3.2,0q0-2.88.12-8.25t0.12-7a0.69,0.69,0,0,1-.08-0.32q-0.48-4.89-2.92-7.21a7.86,7.86,0,0,0-5.81-2.24,12.05,12.05,0,0,0-6.73,2.4,14.43,14.43,0,0,0-5,6.25,2.11,2.11,0,0,1-.24.48q-0.08,1.12-.16,10.85t-0.08,14.78A1.6,1.6,0,0,1,736,300.85Z"/><path d="M813.36,262.88a17.9,17.9,0,0,1,9.45,8.57,23.48,23.48,0,0,1,2.64,12.74A22.71,22.71,0,0,1,824,291.4a21.48,21.48,0,0,1-3.56,6.13,14.29,14.29,0,0,1-5.69,4.08,15.65,15.65,0,0,1-7.53,1,15.34,15.34,0,0,1-9.21-4,17.16,17.16,0,0,1-5-8.09,24.49,24.49,0,0,1-.64-9.69A25.4,25.4,0,0,1,796.93,269a16.78,16.78,0,0,1,10-6.73,1.41,1.41,0,0,1,1.52-.72,10.1,10.1,0,0,0,1.36.24,13.63,13.63,0,0,1,2.08,0A1.49,1.49,0,0,1,813.36,262.88Zm-4,2.32a13.6,13.6,0,0,0-9.53,5.17,20.65,20.65,0,0,0-4.49,11,18.79,18.79,0,0,0,2.24,12.26,11.91,11.91,0,0,0,9.69,5.93,11.48,11.48,0,0,0,10.33-3.88,18.74,18.74,0,0,0,4.49-11.5,20.32,20.32,0,0,0-2.88-12.06A15,15,0,0,0,809.35,265.21Z"/><path d="M834.74,274.58q-0.24,24.59-.24,26.6a1.6,1.6,0,0,1-3.2,0q0-2,.24-26.6V274q0.08-5.53.08-9.85a1.6,1.6,0,0,1,3.2,0v4A17.06,17.06,0,0,1,842,263a16.49,16.49,0,0,1,4.93-.8,9.62,9.62,0,0,1,4.77,1.36,12.37,12.37,0,0,1,4.16,4q3.53,5.37,4.09,16.66a77.83,77.83,0,0,1,.08,9q-0.16,7.73-.16,7.89a1.6,1.6,0,0,1-3.2,0q0-.16.16-7.77a78,78,0,0,0-.08-9q-0.48-10.41-3.61-15.06-3.77-5.61-10-3.36a14.05,14.05,0,0,0-5,3.36A14.32,14.32,0,0,0,834.74,274.58Z"/><path d="M892.5,271.13q0.08-13.86.08-22.27a1.6,1.6,0,0,1,3.2,0q0,8.81-.08,26.39t-0.08,26.39a1.6,1.6,0,0,1-3.2,0v-4.08a15.47,15.47,0,0,1-7.81,4.81,17,17,0,0,1-8.89,0,16.94,16.94,0,0,1-12.06-13.5,24.08,24.08,0,0,1,1.88-14.42,20.7,20.7,0,0,1,8.69-9.93q6.09-3.28,11.78-.24A17.43,17.43,0,0,1,892.5,271.13Zm-0.16,7.61q-2.89-8.89-7.85-11.62a8.57,8.57,0,0,0-8.73.32,17.24,17.24,0,0,0-7.37,8.41,20.63,20.63,0,0,0-1.52,12.58,13.31,13.31,0,0,0,3,6.61,12.27,12.27,0,0,0,5.49,3.81,16.33,16.33,0,0,0,6.41.8,11.93,11.93,0,0,0,6.21-2.36,13.29,13.29,0,0,0,4.45-5.73q0-5,.08-12.5Z"/><path d="M929.91,285.15v0.08l-27.56-.16q-0.16,6.33,2.88,10.21a12.82,12.82,0,0,0,7.69,4.85,13.79,13.79,0,0,0,9.37-1.44,14.94,14.94,0,0,0,6.81-7.69,1.62,1.62,0,0,1,.84-0.84,1.36,1.36,0,0,1,1.2,0,1.78,1.78,0,0,1,.88.88,1.36,1.36,0,0,1,0,1.24,17.51,17.51,0,0,1-8.25,9.29,17,17,0,0,1-11.46,1.68,15.61,15.61,0,0,1-9.85-6.33q-3.77-5.13-3.2-13,0.64-9.21,5.37-14.9T915.65,263a13.11,13.11,0,0,1,11.21,5q4.64,5.45,5.13,15.54a1.75,1.75,0,0,1-.44,1.16,1.36,1.36,0,0,1-1.08.52A1.75,1.75,0,0,1,929.91,285.15Zm-27.24-3.28,26,0.16q-0.8-8.17-4.49-12.14a10.35,10.35,0,0,0-8.33-3.72,12.56,12.56,0,0,0-8.37,4.41Q903.72,274.66,902.67,281.87Z"/><line class="cls-10" x1="618.98" y1="233.67" x2="618.98" y2="274.98"/><line class="cls-10" x1="660.29" y1="233.67" x2="618.98" y2="233.67"/><line class="cls-10" x1="958" y1="319.37" x2="958" y2="278.06"/><line class="cls-10" x1="916.69" y1="319.37" x2="958" y2="319.37"/></svg>