<svg version="1.1"
	 xmlns="http://www.w3.org/2000/svg" xmlns:xlink="http://www.w3.org/1999/xlink" xmlns:a="http://ns.adobe.com/AdobeSVGViewerExtensions/3.0/"
	 x="0px" y="0px" width="280px" height="54px" viewBox="-0.542 -0.794 280 54"
	 overflow="visible" enable-background="new -0.542 -0.794 280 54" xml:space="preserve">
<defs>
</defs>
<path fill="#4A4A4A" d="M106.828,25.474l-0.127-0.02l-8.146,22.52H94.46l-8.109-22.438l-0.125,0.021l0.588,13.352v4.783l3.258,0.627
	v3.654h-12.6v-3.654l3.238-0.627V21.86l-3.238-0.627v-3.678h3.238h7.961l7.75,22.418h0.127l7.814-22.418h11.238v3.678l-3.258,0.627
	v21.832l3.258,0.627v3.654h-12.598v-3.654l3.238-0.627v-4.783L106.828,25.474z"/>
<path fill="#4A4A4A" d="M117.751,21.233v-3.678h12.598v3.678l-3.26,0.627v21.832l3.26,0.627v3.654h-12.598v-3.654l3.26-0.627V21.86
	L117.751,21.233z"/>
<path fill="#4A4A4A" d="M146.333,17.556c3.455,0,6.164,0.791,8.127,2.373c1.963,1.58,2.947,3.764,2.947,6.549
	c0,1.531-0.412,2.861-1.234,3.988c-0.82,1.129-2.027,2.041-3.613,2.738c1.797,0.529,3.088,1.41,3.875,2.643s1.182,2.762,1.182,4.586
	v1.547c0,0.668,0.129,1.188,0.396,1.557c0.264,0.367,0.701,0.588,1.314,0.658l0.754,0.104v3.676h-3.154
	c-1.992,0-3.395-0.535-4.199-1.607c-0.809-1.072-1.213-2.459-1.213-4.156v-1.734c0-1.477-0.395-2.637-1.182-3.48
	c-0.785-0.842-1.896-1.283-3.33-1.324h-4.994v8.021l3.26,0.627v3.654h-12.598v-3.654l3.238-0.627V21.86l-3.238-0.627v-3.678h3.238
	H146.333z M142.009,30.97h4.219c1.699,0,2.975-0.363,3.824-1.088c0.848-0.725,1.273-1.768,1.273-3.133s-0.422-2.455-1.264-3.27
	c-0.842-0.816-2.086-1.223-3.729-1.223h-4.324V30.97z"/>
<path fill="#4A4A4A" d="M161.775,44.319l2.172-0.314l9.252-26.449h6.25l9.189,26.449l2.174,0.314v3.654h-10.361v-3.654l2.107-0.377
	l-1.336-4.178h-9.859l-1.338,4.178l2.111,0.377v3.654h-10.361V44.319z M172.806,35.274h6.975l-3.424-10.721h-0.129L172.806,35.274z"
	/>
<path fill="#4A4A4A" d="M206.501,17.556c3.719,0,6.785,1.188,9.195,3.562c2.408,2.375,3.613,5.422,3.613,9.141v5.035
	c0,3.732-1.205,6.779-3.613,9.141c-2.41,2.359-5.477,3.539-9.195,3.539h-13.684v-3.654l3.238-0.627V21.86l-3.238-0.627v-3.678h3.238
	H206.501z M202.156,22.257v21.037h4.033c2.186,0,3.9-0.738,5.141-2.213c1.238-1.477,1.857-3.406,1.857-5.787v-5.078
	c0-2.352-0.619-4.268-1.857-5.744c-1.24-1.477-2.955-2.215-5.141-2.215H202.156z"/>
<path fill="#4A4A4A" d="M250.105,32.995c0,4.457-1.275,8.143-3.824,11.053s-5.885,4.367-10.008,4.367
	c-4.109,0-7.426-1.457-9.955-4.367s-3.793-6.596-3.793-11.053v-0.459c0-4.43,1.262-8.107,3.783-11.031
	c2.521-2.926,5.834-4.387,9.945-4.387c4.121,0,7.461,1.461,10.018,4.387c2.557,2.924,3.834,6.602,3.834,11.031V32.995z
	 M244.025,32.495c0-3.148-0.656-5.705-1.965-7.668c-1.309-1.965-3.242-2.947-5.807-2.947s-4.475,0.977-5.734,2.924
	c-1.262,1.951-1.893,4.514-1.893,7.691v0.5c0,3.203,0.639,5.785,1.912,7.742c1.273,1.955,3.188,2.934,5.734,2.934
	c2.576,0,4.514-0.979,5.809-2.934c1.295-1.957,1.943-4.539,1.943-7.742V32.495z"/>
<path fill="#4A4A4A" d="M265.169,17.556c3.453,0,6.164,0.791,8.129,2.373c1.959,1.58,2.941,3.764,2.941,6.549
	c0,1.531-0.41,2.861-1.232,3.988c-0.82,1.129-2.025,2.041-3.611,2.738c1.795,0.529,3.086,1.41,3.873,2.643s1.182,2.762,1.182,4.586
	v1.547c0,0.668,0.131,1.188,0.398,1.557c0.264,0.367,0.703,0.588,1.316,0.658l0.75,0.104v3.676h-3.154
	c-1.99,0-3.391-0.535-4.201-1.607c-0.807-1.072-1.211-2.459-1.211-4.156v-1.734c0-1.477-0.393-2.637-1.18-3.48
	c-0.789-0.842-1.898-1.283-3.332-1.324h-4.994v8.021l3.26,0.627v3.654h-12.598v-3.654l3.238-0.627V21.86l-3.238-0.627v-3.678h3.238
	H265.169z M260.843,30.97h4.221c1.699,0,2.975-0.363,3.824-1.088s1.273-1.768,1.273-3.133s-0.42-2.455-1.266-3.27
	c-0.844-0.816-2.084-1.223-3.727-1.223h-4.326V30.97z"/>
<path fill="#60CAD0" d="M58.461,50.153L30.458,34.02V2.206h-1v31.813L1.484,50.153l0.57,1.011l27.939-16.136l27.916,16.136
	L58.461,50.153z M29.989,34.353l-0.001,0.003l-0.001-0.003H29.989z"/>
<path fill="#40AEB4" d="M58.25,52.411c-0.006,0-0.016,0-0.023,0H1.75c-0.625,0-1.202-0.336-1.514-0.877
	c-0.315-0.543-0.315-1.209,0-1.748L28.474,0.874C28.786,0.333,29.364,0,29.987,0c0.628,0,1.205,0.333,1.517,0.874l28.113,48.689
	C59.855,49.865,60,50.245,60,50.661C60,51.626,59.218,52.411,58.25,52.411z M4.78,48.911h50.416L29.987,5.249L4.78,48.911z"/>
</svg>
